<?xml version="1.0" encoding="UTF-8" standalone="no"?>
<!-- Generator: Adobe Illustrator 19.0.0, SVG Export Plug-In . SVG Version: 6.00 Build 0)  -->

<svg
   xmlns:dc="http://purl.org/dc/elements/1.1/"
   xmlns:cc="http://creativecommons.org/ns#"
   xmlns:rdf="http://www.w3.org/1999/02/22-rdf-syntax-ns#"
   xmlns:svg="http://www.w3.org/2000/svg"
   xmlns="http://www.w3.org/2000/svg"
   xmlns:sodipodi="http://sodipodi.sourceforge.net/DTD/sodipodi-0.dtd"
   xmlns:inkscape="http://www.inkscape.org/namespaces/inkscape"
   version="1.1"
   id="Capa_1"
   x="0px"
   y="0px"
   viewBox="0 0 102 102"
   xml:space="preserve"
   sodipodi:docname="heart.border.svg"
   preserveAspectRatio="none"
   inkscape:version="0.92.4 (5da689c313, 2019-01-14)"><metadata
   id="metadata39"><rdf:RDF><cc:Work
       rdf:about=""><dc:format>image/svg+xml</dc:format><dc:type
         rdf:resource="http://purl.org/dc/dcmitype/StillImage" /><dc:title></dc:title></cc:Work></rdf:RDF></metadata><defs
   id="defs37" /><sodipodi:namedview
   pagecolor="#ffffff"
   bordercolor="#666666"
   borderopacity="1"
   objecttolerance="10"
   gridtolerance="10"
   guidetolerance="10"
   inkscape:pageopacity="0"
   inkscape:pageshadow="2"
   inkscape:window-width="2490"
   inkscape:window-height="1376"
   id="namedview35"
   showgrid="false"
   inkscape:zoom="6.418724"
   inkscape:cx="64.490949"
   inkscape:cy="29.101965"
   inkscape:window-x="70"
   inkscape:window-y="27"
   inkscape:window-maximized="1"
   inkscape:current-layer="Capa_1" />
<path
   style="fill:none;fill-opacity:1;stroke:#000000;stroke-width:1;stroke-linecap:round;stroke-linejoin:round;stroke-miterlimit:4;stroke-dasharray:none;stroke-opacity:1;paint-order:normal"
   d="m 28.228516,1 c -1.778719,0 -3.51182,0.195708 -5.1875,0.572265 -1.675681,0.376558 -3.292826,0.93358 -4.837891,1.65625 -1.545065,0.722671 -3.01938,1.6101 -4.40625,2.648438 -1.38687,1.038338 -2.687574,2.227221 -3.888672,3.550781 -1.201098,1.32356 -2.301316,2.782992 -3.289062,4.361328 -0.987747,1.578337 -1.862558,3.275457 -2.609375,5.078125 -0.746817,1.802669 -1.365441,3.710477 -1.84375,5.707032 -0.47831,1.996554 -0.815824,4.082191 -0.998047,6.242187 -0.0577,0.381632 -0.205322,1.577592 -0.158203,3.496094 0.04712,1.918502 0.288536,4.560521 1.007812,7.835937 0.518302,2.362189 1.207038,4.669361 2.056641,6.910157 0.849603,2.240795 1.860773,4.413721 3.02539,6.503906 1.164617,2.090185 2.481969,4.097454 3.945313,6.007812 1.463344,1.910358 3.072576,3.724468 4.818359,5.425782 L 50.701172,101 86.138672,66.998047 c 1.745784,-1.701831 3.355015,-3.515294 4.818359,-5.425782 1.463344,-1.910487 2.780696,-3.917627 3.945313,-6.007812 1.164617,-2.090185 2.175787,-4.262982 3.02539,-6.503906 0.849603,-2.240925 1.538339,-4.549404 2.056641,-6.91211 0.719275,-3.274382 0.960455,-5.917693 1.007815,-7.835937 0.0474,-1.918244 -0.0995,-3.112509 -0.15625,-3.494141 -0.18247,-2.159996 -0.51961,-4.245633 -0.998049,-6.242187 C 99.359446,22.579617 98.739065,20.671809 97.992187,18.869141 97.24531,17.066472 96.370574,15.369352 95.382813,13.791015 94.395051,12.212679 93.294848,10.753247 92.09375,9.429687 90.892652,8.106128 89.591964,6.917244 88.205078,5.878906 86.818193,4.840568 85.343953,3.953139 83.798828,3.230469 82.253703,2.507798 80.636753,1.950776 78.960937,1.574219 77.285122,1.197661 75.550443,1.001953 73.771484,1.001953 c -1.185171,0 -2.357401,0.08472 -3.511718,0.251953 -1.154318,0.167231 -2.290585,0.416243 -3.402344,0.742188 -2.223518,0.65189 -4.348973,1.613959 -6.332031,2.849609 -1.983059,1.23565 -3.823694,2.744814 -5.472657,4.496094 -1.648962,1.75128 -3.106894,3.744579 -4.328125,5.943359 C 49.514437,13.057935 48.087481,11.049775 46.480469,9.292969 44.873456,7.536162 43.08648,6.029579 41.160156,4.800781 39.233832,3.571983 37.168106,2.621712 35,1.978515 33.915947,1.656917 32.805743,1.412445 31.675781,1.248047 30.545819,1.083648 29.394695,1 28.228516,1 Z"
   id="path853"
   inkscape:connector-curvature="0" /><path
   style="fill:#ffffff;fill-opacity:1;stroke:none;stroke-width:2.07517338;stroke-linecap:round;stroke-linejoin:round;stroke-miterlimit:4;stroke-dasharray:none;stroke-opacity:1;paint-order:normal"
   d="M 0,0 V 102 H 102 V 0 Z m 28.228516,1 c 1.166179,0 2.317303,0.08365 3.447265,0.248047 1.129962,0.164398 2.240166,0.40887 3.324219,0.730468 2.168106,0.643197 4.233833,1.593468 6.160156,2.822266 1.926324,1.228798 3.7133,2.735381 5.320313,4.492188 1.607012,1.756806 3.033968,3.764966 4.24414,5.992187 1.221231,-2.19878 2.679163,-4.192079 4.328125,-5.943359 1.648963,-1.75128 3.489598,-3.260444 5.472657,-4.496094 1.983058,-1.23565 4.108513,-2.197719 6.332031,-2.849609 1.111759,-0.325945 2.248026,-0.574957 3.402344,-0.742188 1.154317,-0.167231 2.326547,-0.251953 3.511718,-0.251953 1.778959,0 3.513638,0.195708 5.189453,0.572266 1.675816,0.376557 3.292766,0.933579 4.837891,1.65625 1.545125,0.72267 3.019365,1.610099 4.40625,2.648437 1.386886,1.038338 2.687574,2.227222 3.888672,3.550781 1.201098,1.32356 2.301301,2.782992 3.289063,4.361328 0.987761,1.578337 1.862497,3.275457 2.609374,5.078126 0.746878,1.802668 1.367259,3.710476 1.845704,5.707031 0.478439,1.996554 0.815579,4.082191 0.998049,6.242187 0.0567,0.381632 0.20361,1.575897 0.15625,3.494141 -0.0474,1.918244 -0.28854,4.561555 -1.007815,7.835937 -0.518302,2.362706 -1.207038,4.671185 -2.056641,6.91211 -0.849603,2.240924 -1.860773,4.413721 -3.02539,6.503906 -1.164617,2.090185 -2.481969,4.097325 -3.945313,6.007812 -1.463344,1.910488 -3.072575,3.723951 -4.818359,5.425782 L 50.701172,101 15.863281,66.996094 C 14.117498,65.29478 12.508266,63.48067 11.044922,61.570312 9.581578,59.659954 8.264226,57.652685 7.099609,55.5625 5.934992,53.472315 4.923822,51.299389 4.074219,49.058594 3.224616,46.817798 2.53588,44.510626 2.017578,42.148437 1.298302,38.873021 1.056884,36.231002 1.009766,34.3125 0.962646,32.393998 1.110273,31.198038 1.167969,30.816406 1.350192,28.65641 1.687706,26.570773 2.166016,24.574219 2.644325,22.577664 3.262949,20.669856 4.009766,18.867187 4.756583,17.064519 5.631394,15.367399 6.619141,13.789062 7.606887,12.210726 8.707105,10.751294 9.908203,9.427734 11.109301,8.104174 12.410005,6.915291 13.796875,5.876953 15.183745,4.838615 16.65806,3.951186 18.203125,3.228515 19.74819,2.505845 21.365335,1.948823 23.041016,1.572265 24.716696,1.195708 26.449797,1 28.228516,1 Z"
   id="rect846"
   inkscape:connector-curvature="0" />
<g
   id="g4"
   transform="translate(33.328125,53.408203)">
</g>
<g
   id="g6"
   transform="translate(33.328125,53.408203)">
</g>
<g
   id="g8"
   transform="translate(33.328125,53.408203)">
</g>
<g
   id="g10"
   transform="translate(33.328125,53.408203)">
</g>
<g
   id="g12"
   transform="translate(33.328125,53.408203)">
</g>
<g
   id="g14"
   transform="translate(33.328125,53.408203)">
</g>
<g
   id="g16"
   transform="translate(33.328125,53.408203)">
</g>
<g
   id="g18"
   transform="translate(33.328125,53.408203)">
</g>
<g
   id="g20"
   transform="translate(33.328125,53.408203)">
</g>
<g
   id="g22"
   transform="translate(33.328125,53.408203)">
</g>
<g
   id="g24"
   transform="translate(33.328125,53.408203)">
</g>
<g
   id="g26"
   transform="translate(33.328125,53.408203)">
</g>
<g
   id="g28"
   transform="translate(33.328125,53.408203)">
</g>
<g
   id="g30"
   transform="translate(33.328125,53.408203)">
</g>
<g
   id="g32"
   transform="translate(33.328125,53.408203)">
</g>
</svg>