<?xml version="1.0" encoding="UTF-8" standalone="no"?>
<!-- Generator: Adobe Illustrator 19.0.0, SVG Export Plug-In . SVG Version: 6.00 Build 0)  -->

<svg
   xmlns:dc="http://purl.org/dc/elements/1.1/"
   xmlns:cc="http://creativecommons.org/ns#"
   xmlns:rdf="http://www.w3.org/1999/02/22-rdf-syntax-ns#"
   xmlns:svg="http://www.w3.org/2000/svg"
   xmlns="http://www.w3.org/2000/svg"
   xmlns:sodipodi="http://sodipodi.sourceforge.net/DTD/sodipodi-0.dtd"
   xmlns:inkscape="http://www.inkscape.org/namespaces/inkscape"
   version="1.1"
   id="Capa_1"
   x="0px"
   y="0px"
   viewBox="0 0 102 102"
   xml:space="preserve"
   sodipodi:docname="star.svg"
   preserveAspectRatio="none"
   inkscape:version="0.92.4 (5da689c313, 2019-01-14)"><metadata
   id="metadata39"><rdf:RDF><cc:Work
       rdf:about=""><dc:format>image/svg+xml</dc:format><dc:type
         rdf:resource="http://purl.org/dc/dcmitype/StillImage" /><dc:title></dc:title></cc:Work></rdf:RDF></metadata><defs
   id="defs37" /><sodipodi:namedview
   pagecolor="#ffffff"
   bordercolor="#666666"
   borderopacity="1"
   objecttolerance="10"
   gridtolerance="10"
   guidetolerance="10"
   inkscape:pageopacity="0"
   inkscape:pageshadow="2"
   inkscape:window-width="2490"
   inkscape:window-height="1376"
   id="namedview35"
   showgrid="false"
   inkscape:zoom="5.6568542"
   inkscape:cx="80.899996"
   inkscape:cy="33.769112"
   inkscape:window-x="70"
   inkscape:window-y="27"
   inkscape:window-maximized="1"
   inkscape:current-layer="Capa_1" />
<path
   style="fill:none;fill-opacity:1;stroke:#000000;stroke-width:1;stroke-linecap:round;stroke-linejoin:round;stroke-miterlimit:4;stroke-dasharray:none;stroke-opacity:1;paint-order:normal"
   d="m 51,1.5 c -0.67998,0 -1.34241,0.09692 -1.97266,0.285156 -0.63024,0.188189 -1.22685,0.46717 -1.77734,0.824219 -0.55049,0.357059 -1.05348,0.79226 -1.49414,1.298828 -0.44069,0.50659 -0.82027,1.083925 -1.12109,1.720703 L 33.91601,28.298828 c -0.22797,0.48315 -0.56309,0.893913 -0.96874,1.201172 -0.40565,0.307279 -0.8821,0.512244 -1.39258,0.589844 L 7.58398,33.728516 C 6.91045,33.830425 6.26962,34.026082 5.67187,34.306641 5.07412,34.5872 4.52073,34.95092 4.02539,35.386719 3.53003,35.822538 3.09093,36.33078 2.72461,36.898438 c -0.36631,0.567649 -0.66046,1.194985 -0.8711,1.871093 -0.21014,0.676078 -0.32439,1.36481 -0.34765,2.048829 -0.0232,0.684008 0.044,1.362964 0.19922,2.019531 0.15523,0.656549 0.39727,1.291026 0.72265,1.884765 0.32539,0.593748 0.73352,1.14703 1.22071,1.642578 l 17.3457,17.646485 c 0.36973,0.376599 0.63953,0.834393 0.79492,1.332031 0.15536,0.497619 0.19662,1.034754 0.10938,1.564453 l -4.09375,24.917969 c -0.11497,0.699898 -0.13545,1.398196 -0.0645,2.078125 0.0709,0.679938 0.23259,1.342441 0.47657,1.96875 0.24396,0.626298 0.5708,1.216871 0.97461,1.755859 0.40383,0.538959 0.88492,1.025391 1.43554,1.44336 0.55011,0.418468 1.14212,0.745429 1.75782,0.980464 0.61568,0.23504 1.254,0.37885 1.90039,0.42774 0.64639,0.0489 1.30116,0.004 1.94335,-0.13672 0.64221,-0.13999 1.27185,-0.375462 1.875,-0.707031 L 49.54293,87.873047 c 0.45695,-0.250368 0.95597,-0.376953 1.45703,-0.376953 0.50104,0 1.00401,0.126585 1.46094,0.376953 l 21.4375,11.763672 c 0.52335,0.287599 1.06967,0.503701 1.625,0.646481 0.55531,0.14277 1.12156,0.21289 1.68554,0.21289 0.73252,0 1.4625,-0.11973 2.16602,-0.35742 0.70349,-0.237687 1.37949,-0.593606 2.00195,-1.066404 0.55062,-0.417969 1.03174,-0.904401 1.43555,-1.44336 0.40383,-0.538988 0.73065,-1.129561 0.97461,-1.755859 0.24395,-0.626309 0.40552,-1.288812 0.47656,-1.96875 0.0709,-0.679929 0.0524,-1.378227 -0.0625,-2.078125 l -4.0957,-24.916016 c -0.0873,-0.530729 -0.046,-1.067084 0.10937,-1.564453 0.15537,-0.497369 0.4252,-0.955452 0.79493,-1.332031 L 98.35152,46.365234 c 0.48718,-0.495547 0.89726,-1.04883 1.22266,-1.642578 0.32539,-0.593739 0.56739,-1.228216 0.72265,-1.884765 0.15524,-0.656567 0.22249,-1.335522 0.19922,-2.019531 -0.0232,-0.684018 -0.13752,-1.372751 -0.34765,-2.048829 C 99.93777,38.093423 99.64169,37.466117 99.27535,36.898438 98.909,36.33075 98.47201,35.822668 97.97652,35.386719 97.48107,34.95079 96.92807,34.58749 96.33004,34.306641 95.73201,34.025781 95.08999,33.828982 94.41597,33.726563 L 70.44531,30.089844 C 69.93485,30.012244 69.45789,29.807279 69.05273,29.5 68.64758,29.192741 68.31391,28.781978 68.08594,28.298828 L 57.36719,5.628906 C 57.06637,4.992128 56.68877,4.414793 56.24805,3.908203 55.80734,3.401635 55.30451,2.966434 54.75391,2.609375 54.2033,2.252326 53.60514,1.973345 52.97461,1.785156 52.3441,1.596955 51.68046,1.5 51,1.5 Z"
   id="path4557"
   inkscape:connector-curvature="0" />
<g
   id="g4"
   transform="matrix(0.49999998,0,0,0.50000114,-35.83287,224.88161)"
   style="stroke:#000000;stroke-width:1.99999774;stroke-miterlimit:4;stroke-dasharray:none;stroke-opacity:1">
</g>
<g
   id="g6"
   transform="matrix(0.49999998,0,0,0.50000114,-35.83287,224.88161)"
   style="stroke:#000000;stroke-width:1.99999774;stroke-miterlimit:4;stroke-dasharray:none;stroke-opacity:1">
</g>
<g
   id="g8"
   transform="matrix(0.49999998,0,0,0.50000114,-35.83287,224.88161)"
   style="stroke:#000000;stroke-width:1.99999774;stroke-miterlimit:4;stroke-dasharray:none;stroke-opacity:1">
</g>
<g
   id="g10"
   transform="matrix(0.49999998,0,0,0.50000114,-35.83287,224.88161)"
   style="stroke:#000000;stroke-width:1.99999774;stroke-miterlimit:4;stroke-dasharray:none;stroke-opacity:1">
</g>
<g
   id="g12"
   transform="matrix(0.49999998,0,0,0.50000114,-35.83287,224.88161)"
   style="stroke:#000000;stroke-width:1.99999774;stroke-miterlimit:4;stroke-dasharray:none;stroke-opacity:1">
</g>
<g
   id="g14"
   transform="matrix(0.49999998,0,0,0.50000114,-35.83287,224.88161)"
   style="stroke:#000000;stroke-width:1.99999774;stroke-miterlimit:4;stroke-dasharray:none;stroke-opacity:1">
</g>
<g
   id="g16"
   transform="matrix(0.49999998,0,0,0.50000114,-35.83287,224.88161)"
   style="stroke:#000000;stroke-width:1.99999774;stroke-miterlimit:4;stroke-dasharray:none;stroke-opacity:1">
</g>
<g
   id="g18"
   transform="matrix(0.49999998,0,0,0.50000114,-35.83287,224.88161)"
   style="stroke:#000000;stroke-width:1.99999774;stroke-miterlimit:4;stroke-dasharray:none;stroke-opacity:1">
</g>
<g
   id="g20"
   transform="matrix(0.49999998,0,0,0.50000114,-35.83287,224.88161)"
   style="stroke:#000000;stroke-width:1.99999774;stroke-miterlimit:4;stroke-dasharray:none;stroke-opacity:1">
</g>
<g
   id="g22"
   transform="matrix(0.49999998,0,0,0.50000114,-35.83287,224.88161)"
   style="stroke:#000000;stroke-width:1.99999774;stroke-miterlimit:4;stroke-dasharray:none;stroke-opacity:1">
</g>
<g
   id="g24"
   transform="matrix(0.49999998,0,0,0.50000114,-35.83287,224.88161)"
   style="stroke:#000000;stroke-width:1.99999774;stroke-miterlimit:4;stroke-dasharray:none;stroke-opacity:1">
</g>
<g
   id="g26"
   transform="matrix(0.49999998,0,0,0.50000114,-35.83287,224.88161)"
   style="stroke:#000000;stroke-width:1.99999774;stroke-miterlimit:4;stroke-dasharray:none;stroke-opacity:1">
</g>
<g
   id="g28"
   transform="matrix(0.49999998,0,0,0.50000114,-35.83287,224.88161)"
   style="stroke:#000000;stroke-width:1.99999774;stroke-miterlimit:4;stroke-dasharray:none;stroke-opacity:1">
</g>
<g
   id="g30"
   transform="matrix(0.49999998,0,0,0.50000114,-35.83287,224.88161)"
   style="stroke:#000000;stroke-width:1.99999774;stroke-miterlimit:4;stroke-dasharray:none;stroke-opacity:1">
</g>
<g
   id="g32"
   transform="matrix(0.49999998,0,0,0.50000114,-35.83287,224.88161)"
   style="stroke:#000000;stroke-width:1.99999774;stroke-miterlimit:4;stroke-dasharray:none;stroke-opacity:1">
</g>
<path
   style="fill:#ffffff;fill-opacity:1;stroke:none;stroke-width:1.8795656;stroke-linecap:round;stroke-linejoin:round;stroke-miterlimit:4;stroke-dasharray:none;stroke-opacity:1;paint-order:normal"
   d="M 0,0 V 102 H 102 V 0 Z m 51,1.5 c 0.68046,0 1.3441,0.09696 1.97461,0.285156 0.63053,0.188189 1.22869,0.46717 1.7793,0.824219 0.5506,0.357059 1.05343,0.79226 1.49414,1.298828 0.44072,0.50659 0.81832,1.083925 1.11914,1.720703 l 10.71875,22.669922 c 0.22797,0.48315 0.56164,0.893913 0.96679,1.201172 0.40516,0.307279 0.88212,0.512244 1.39258,0.589844 l 23.9707,3.636719 c 0.67402,0.102419 1.31604,0.299218 1.91407,0.580078 0.59803,0.280849 1.15103,0.644149 1.64648,1.080078 0.49549,0.435949 0.93248,0.944031 1.29883,1.511719 0.36634,0.567679 0.66242,1.194985 0.87305,1.871093 0.21013,0.676078 0.32445,1.364811 0.34765,2.048829 0.0233,0.684009 -0.044,1.362964 -0.19922,2.019531 -0.15526,0.656549 -0.39726,1.291026 -0.72265,1.884765 -0.3254,0.593748 -0.73548,1.147031 -1.22266,1.642578 L 81.00977,64.013672 c -0.36973,0.376579 -0.63956,0.834662 -0.79493,1.332031 -0.15541,0.497369 -0.19667,1.033724 -0.10937,1.564453 l 4.0957,24.916016 c 0.1149,0.699898 0.1334,1.398196 0.0625,2.078125 -0.071,0.679938 -0.23261,1.342441 -0.47656,1.96875 -0.24396,0.626298 -0.57078,1.216871 -0.97461,1.755859 -0.40381,0.538959 -0.88493,1.025391 -1.43555,1.44336 -0.62246,0.472798 -1.29846,0.828717 -2.00195,1.066404 -0.70352,0.23769 -1.4335,0.35742 -2.16602,0.35742 -0.56398,0 -1.13023,-0.0701 -1.68554,-0.21289 -0.55533,-0.14278 -1.10165,-0.358882 -1.625,-0.646481 L 52.46094,87.873047 C 52.00401,87.622679 51.50104,87.496094 51,87.496094 c -0.50106,0 -1.00008,0.126585 -1.45703,0.376953 L 28.10351,99.636719 c -0.60315,0.331569 -1.23279,0.567041 -1.875,0.707031 -0.64219,0.14022 -1.29696,0.18562 -1.94335,0.13672 -0.64639,-0.0489 -1.28471,-0.1927 -1.90039,-0.42774 -0.6157,-0.235035 -1.20771,-0.561996 -1.75782,-0.980464 -0.55062,-0.417969 -1.03171,-0.904401 -1.43554,-1.44336 -0.40381,-0.538988 -0.73065,-1.129561 -0.97461,-1.755859 -0.24398,-0.626309 -0.40567,-1.288812 -0.47657,-1.96875 -0.071,-0.679929 -0.0505,-1.378227 0.0645,-2.078125 l 4.09375,-24.917969 c 0.0872,-0.529699 0.046,-1.066834 -0.10938,-1.564453 -0.15539,-0.497638 -0.42519,-0.955432 -0.79492,-1.332031 L 3.64848,46.365234 C 3.16129,45.869686 2.75316,45.316404 2.42777,44.722656 2.10239,44.128917 1.86035,43.49444 1.70512,42.837891 1.54987,42.181324 1.4827,41.502368 1.5059,40.81836 1.5292,40.134341 1.64341,39.445609 1.85355,38.769531 2.06419,38.093423 2.35834,37.466087 2.72465,36.898438 3.09097,36.33078 3.53007,35.822538 4.02543,35.386719 4.52077,34.95092 5.07416,34.5872 5.67191,34.306641 6.26966,34.026082 6.91049,33.830425 7.58402,33.728516 l 23.97067,-3.638672 c 0.51048,-0.0776 0.98693,-0.282565 1.39258,-0.589844 0.40565,-0.307259 0.74077,-0.718022 0.96874,-1.201172 L 44.63477,5.628906 C 44.93559,4.992128 45.31517,4.414793 45.75586,3.908203 46.19652,3.401635 46.69951,2.966434 47.25,2.609375 47.80049,2.252326 48.3971,1.973345 49.02734,1.785156 49.65759,1.596916 50.32002,1.5 51,1.5 Z"
   id="rect4554"
   inkscape:connector-curvature="0" /></svg>